<mxfile host="Electron" agent="Mozilla/5.0 (Windows NT 10.0; Win64; x64) AppleWebKit/537.36 (KHTML, like Gecko) draw.io/27.0.9 Chrome/134.0.6998.205 Electron/35.4.0 Safari/537.36" version="27.0.9">
  <diagram id="prtHgNgQTEPvFCAcTncT" name="Page-1">
    <mxGraphModel dx="1426" dy="907" grid="0" gridSize="10" guides="1" tooltips="1" connect="1" arrows="1" fold="1" page="0" pageScale="1" pageWidth="1169" pageHeight="827" math="0" shadow="0">
      <root>
        <mxCell id="0" />
        <mxCell id="1" parent="0" />
        <mxCell id="title" value="EC2 Image Builder Workflow - Golden AMI Pipeline" style="text;html=1;strokeColor=none;fillColor=none;align=center;verticalAlign=middle;whiteSpace=wrap;rounded=0;fontSize=20;fontStyle=1" parent="1" vertex="1">
          <mxGeometry x="260" y="20" width="650" height="40" as="geometry" />
        </mxCell>
        <mxCell id="cloud_border" value="AWS Cloud" style="points=[[0,0],[0.25,0],[0.5,0],[0.75,0],[1,0],[1,0.25],[1,0.5],[1,0.75],[1,1],[0.75,1],[0.5,1],[0.25,1],[0,1],[0,0.75],[0,0.5],[0,0.25]];outlineConnect=0;gradientColor=none;html=1;whiteSpace=wrap;fontSize=12;fontStyle=0;container=1;pointerEvents=0;collapsible=0;recursiveResize=0;shape=mxgraph.aws4.group;grIcon=mxgraph.aws4.group_aws_cloud;strokeColor=#232F3E;fillColor=none;verticalAlign=top;align=left;spacingLeft=30;fontColor=#232F3E;dashed=0;" parent="1" vertex="1">
          <mxGeometry x="10" y="60" width="1410" height="790" as="geometry" />
        </mxCell>
        <mxCell id="base_ami" value="&lt;b&gt;&lt;font face=&quot;Verdana&quot;&gt;Windows Server 2022&lt;br&gt;Base Image&lt;/font&gt;&lt;/b&gt;" style="sketch=0;outlineConnect=0;fontColor=#232F3E;gradientColor=none;fillColor=#D45B07;strokeColor=none;dashed=0;verticalLabelPosition=bottom;verticalAlign=top;align=center;html=1;fontSize=12;fontStyle=0;aspect=fixed;pointerEvents=1;shape=mxgraph.aws4.ami;" parent="cloud_border" vertex="1">
          <mxGeometry x="80" y="180" width="48" height="48" as="geometry" />
        </mxCell>
        <mxCell id="imagebuilder_title" value="EC2 Image Builder" style="fillColor=#FF8000;strokeColor=none;dashed=0;verticalAlign=top;fontStyle=1;fontColor=#FFFFFF;fontSize=14;opacity=80;" parent="cloud_border" vertex="1">
          <mxGeometry x="200" y="20" width="690" height="560" as="geometry" />
        </mxCell>
        <mxCell id="infosec_pipeline" value="Infosec Golden Image Pipeline&#xa;(Run on 15th of every month)" style="fillColor=#4D27AA;strokeColor=#ffffff;dashed=0;verticalAlign=top;fontStyle=1;fontColor=#FFFFFF;fontSize=10;opacity=80;" parent="cloud_border" vertex="1">
          <mxGeometry x="220" y="120" width="320" height="350" as="geometry" />
        </mxCell>
        <mxCell id="infosec_build_phase" value="Build Phase" style="fillColor=#7030A0;strokeColor=#ffffff;dashed=0;verticalAlign=top;fontStyle=1;fontColor=#FFFFFF;fontSize=10;opacity=80;" parent="cloud_border" vertex="1">
          <mxGeometry x="230" y="180" width="200" height="190" as="geometry" />
        </mxCell>
        <mxCell id="infosec_test_phase" value="Test Phase" style="fillColor=#7030A0;strokeColor=#ffffff;dashed=0;verticalAlign=top;fontStyle=1;fontColor=#FFFFFF;fontSize=10;opacity=80;" parent="cloud_border" vertex="1">
          <mxGeometry x="440" y="180" width="94" height="190" as="geometry" />
        </mxCell>
        <mxCell id="stig_component" value="STIG Build&#xa;Windows Low" style="sketch=0;outlineConnect=0;fontColor=#232F3E;gradientColor=none;fillColor=#067F68;strokeColor=none;dashed=0;verticalLabelPosition=bottom;verticalAlign=top;align=center;html=1;fontSize=12;fontStyle=0;aspect=fixed;pointerEvents=1;shape=mxgraph.aws4.ec2_image_builder_component;" parent="cloud_border" vertex="1">
          <mxGeometry x="240" y="250" width="48" height="48" as="geometry" />
        </mxCell>
        <mxCell id="stig_steps" value="- Security hardening&#xa;- Group policy&#xa;- Registry settings" style="text;html=1;strokeColor=none;fillColor=none;align=left;verticalAlign=middle;whiteSpace=wrap;rounded=0;fontSize=8;fontColor=#FFFFFF;" parent="cloud_border" vertex="1">
          <mxGeometry x="240" y="250" width="75" height="35" as="geometry" />
        </mxCell>
        <mxCell id="update_component" value="Windows Update&#xa;Component" style="sketch=0;outlineConnect=0;fontColor=#232F3E;gradientColor=none;fillColor=#067F68;strokeColor=none;dashed=0;verticalLabelPosition=bottom;verticalAlign=top;align=center;html=1;fontSize=12;fontStyle=0;aspect=fixed;pointerEvents=1;shape=mxgraph.aws4.ec2_image_builder_component;" parent="cloud_border" vertex="1">
          <mxGeometry x="338" y="238" width="67" height="67" as="geometry" />
        </mxCell>
        <mxCell id="update_steps" value="- Security patches&#xa;- Latest updates&#xa;- Hotfixes" style="text;html=1;strokeColor=none;fillColor=none;align=left;verticalAlign=middle;whiteSpace=wrap;rounded=0;fontSize=8;fontColor=#FFFFFF;" parent="cloud_border" vertex="1">
          <mxGeometry x="341" y="241" width="61" height="36" as="geometry" />
        </mxCell>
        <mxCell id="test_component" value="&lt;font style=&quot;font-size: 10px;&quot;&gt;Reboot Windows&lt;br&gt;Test Component&lt;/font&gt;" style="sketch=0;outlineConnect=0;fontColor=#232F3E;gradientColor=none;fillColor=#067F68;strokeColor=none;dashed=0;verticalLabelPosition=bottom;verticalAlign=top;align=center;html=1;fontSize=12;fontStyle=0;aspect=fixed;pointerEvents=1;shape=mxgraph.aws4.ec2_image_builder_component;" parent="cloud_border" vertex="1">
          <mxGeometry x="456" y="250" width="54" height="54" as="geometry" />
        </mxCell>
        <mxCell id="test_steps" value="- Verify boot&#xa;- Validate config" style="text;html=1;strokeColor=none;fillColor=none;align=left;verticalAlign=middle;whiteSpace=wrap;rounded=0;fontSize=8;fontColor=#FFFFFF;" parent="cloud_border" vertex="1">
          <mxGeometry x="456" y="256" width="64" height="36" as="geometry" />
        </mxCell>
        <mxCell id="infosec_ami" value="&lt;font face=&quot;Courier New&quot; style=&quot;font-size: 10px;&quot;&gt;&lt;b style=&quot;&quot;&gt;Infosec Golden AMI&lt;br&gt;(Version X)&lt;/b&gt;&lt;/font&gt;" style="sketch=0;outlineConnect=0;fontColor=#232F3E;gradientColor=none;fillColor=#D45B07;strokeColor=none;dashed=0;verticalLabelPosition=bottom;verticalAlign=top;align=center;html=1;fontSize=12;fontStyle=0;aspect=fixed;pointerEvents=1;shape=mxgraph.aws4.ami;" parent="cloud_border" vertex="1">
          <mxGeometry x="460" y="410" width="48" height="48" as="geometry" />
        </mxCell>
        <mxCell id="sysprep_note" value="Apply Sysprep" style="shape=process;whiteSpace=wrap;html=1;backgroundOutline=1;fillColor=#1ba1e2;strokeColor=#006EAF;fontColor=#ffffff;fontSize=10;size=0;" parent="cloud_border" vertex="1">
          <mxGeometry x="350" y="380" width="90" height="20" as="geometry" />
        </mxCell>
        <mxCell id="webserver_pipeline" value="Web Server Image Pipeline&#xa;(Run on 20th of every month if Infosec image updated)" style="fillColor=#3334B9;strokeColor=#ffffff;dashed=0;verticalAlign=top;fontStyle=1;fontColor=#FFFFFF;fontSize=10;opacity=80;" parent="cloud_border" vertex="1">
          <mxGeometry x="560" y="120" width="320" height="350" as="geometry" />
        </mxCell>
        <mxCell id="webserver_build_phase" value="Build Phase" style="fillColor=#0066CC;strokeColor=#ffffff;dashed=0;verticalAlign=top;fontStyle=1;fontColor=#FFFFFF;fontSize=10;opacity=80;" parent="cloud_border" vertex="1">
          <mxGeometry x="580" y="180" width="180" height="190" as="geometry" />
        </mxCell>
        <mxCell id="webserver_test_phase" value="Test Phase" style="fillColor=#0066CC;strokeColor=#ffffff;dashed=0;verticalAlign=top;fontStyle=1;fontColor=#FFFFFF;fontSize=10;opacity=80;" parent="cloud_border" vertex="1">
          <mxGeometry x="790" y="180" width="80" height="190" as="geometry" />
        </mxCell>
        <mxCell id="webserver_component" value="&lt;font face=&quot;Times New Roman&quot; style=&quot;font-size: 10px;&quot;&gt;Custom IIS&lt;br&gt;Web Server Config&lt;/font&gt;" style="sketch=0;outlineConnect=0;fontColor=#232F3E;gradientColor=none;fillColor=#067F68;strokeColor=none;dashed=0;verticalLabelPosition=bottom;verticalAlign=top;align=center;html=1;fontSize=12;fontStyle=0;aspect=fixed;pointerEvents=1;shape=mxgraph.aws4.ec2_image_builder_component;" parent="cloud_border" vertex="1">
          <mxGeometry x="600" y="234" width="64" height="64" as="geometry" />
        </mxCell>
        <mxCell id="iis_config_detail" value="- Create staging dir&#xa;- Make website dir&#xa;- Download payload&#xa;- Unzip files&#xa;- Configure IIS" style="text;html=1;strokeColor=none;fillColor=none;align=left;verticalAlign=middle;whiteSpace=wrap;rounded=0;fontSize=8;fontColor=#FFFFFF;" parent="cloud_border" vertex="1">
          <mxGeometry x="600" y="244" width="85" height="33" as="geometry" />
        </mxCell>
        <mxCell id="component_doc" value="&lt;font style=&quot;font-size: 9px;&quot;&gt;Component Document&lt;br&gt;(YAML Format)&lt;/font&gt;" style="shape=note;whiteSpace=wrap;html=1;backgroundOutline=1;darkOpacity=0.05;size=10;fillColor=#dae8fc;strokeColor=#6c8ebf;fontSize=10;" parent="cloud_border" vertex="1">
          <mxGeometry x="675" y="250" width="65" height="50" as="geometry" />
        </mxCell>
        <mxCell id="component_doc_details" value="- Phases&#xa;- Steps&#xa;- Actions" style="text;html=1;strokeColor=none;fillColor=none;align=left;verticalAlign=middle;whiteSpace=wrap;rounded=0;fontSize=8;fontColor=#FFFFFF;" parent="cloud_border" vertex="1">
          <mxGeometry x="685" y="298" width="65" height="36" as="geometry" />
        </mxCell>
        <mxCell id="webserver_test_component" value="Web Server&#xa;Test Component" style="sketch=0;outlineConnect=0;fontColor=#232F3E;gradientColor=none;fillColor=#067F68;strokeColor=none;dashed=0;verticalLabelPosition=bottom;verticalAlign=top;align=center;html=1;fontSize=12;fontStyle=0;aspect=fixed;pointerEvents=1;shape=mxgraph.aws4.ec2_image_builder_component;" parent="cloud_border" vertex="1">
          <mxGeometry x="812" y="250" width="48" height="48" as="geometry" />
        </mxCell>
        <mxCell id="webserver_test_details" value="- Verify IIS&#xa;- Test website" style="text;html=1;strokeColor=none;fillColor=none;align=left;verticalAlign=middle;whiteSpace=wrap;rounded=0;fontSize=8;fontColor=#FFFFFF;" parent="cloud_border" vertex="1">
          <mxGeometry x="812" y="250" width="48" height="30" as="geometry" />
        </mxCell>
        <mxCell id="webserver_ami" value="&lt;font face=&quot;Courier New&quot; style=&quot;font-size: 10px;&quot;&gt;&lt;b&gt;Web Server AMI&lt;br&gt;(Version Y)&lt;/b&gt;&lt;/font&gt;" style="sketch=0;outlineConnect=0;fontColor=#232F3E;gradientColor=none;fillColor=#D45B07;strokeColor=none;dashed=0;verticalLabelPosition=bottom;verticalAlign=top;align=center;html=1;fontSize=12;fontStyle=0;aspect=fixed;pointerEvents=1;shape=mxgraph.aws4.ami;" parent="cloud_border" vertex="1">
          <mxGeometry x="776" y="410" width="48" height="48" as="geometry" />
        </mxCell>
        <mxCell id="webserver_sysprep" value="Apply Sysprep" style="shape=process;whiteSpace=wrap;html=1;backgroundOutline=1;fillColor=#1ba1e2;strokeColor=#006EAF;fontColor=#ffffff;fontSize=10;" parent="cloud_border" vertex="1">
          <mxGeometry x="670" y="380" width="90" height="20" as="geometry" />
        </mxCell>
        <mxCell id="build_process_header" value="Build Process Steps" style="fillColor=#808080;strokeColor=#666666;dashed=0;verticalAlign=top;fontStyle=1;fontColor=#FFFFFF;fontSize=10;opacity=80;" parent="cloud_border" vertex="1">
          <mxGeometry x="210" y="495" width="660" height="80" as="geometry" />
        </mxCell>
        <mxCell id="bp_provision" value="&lt;b&gt;&lt;font face=&quot;Verdana&quot;&gt;1. Provision Instance&lt;/font&gt;&lt;/b&gt;" style="rounded=0;whiteSpace=wrap;html=1;fillColor=#647687;strokeColor=#314354;fontColor=#ffffff;fontSize=9;" parent="cloud_border" vertex="1">
          <mxGeometry x="220" y="515" width="100" height="30" as="geometry" />
        </mxCell>
        <mxCell id="bp_download" value="&lt;font face=&quot;Verdana&quot;&gt;&lt;b&gt;2. Download Components&lt;/b&gt;&lt;/font&gt;" style="rounded=0;whiteSpace=wrap;html=1;fillColor=#647687;strokeColor=#314354;fontColor=#ffffff;fontSize=9;" parent="cloud_border" vertex="1">
          <mxGeometry x="330" y="515" width="100" height="30" as="geometry" />
        </mxCell>
        <mxCell id="bp_execute" value="&lt;font face=&quot;Verdana&quot;&gt;&lt;b&gt;3. Execute Components&lt;/b&gt;&lt;/font&gt;" style="rounded=0;whiteSpace=wrap;html=1;fillColor=#647687;strokeColor=#314354;fontColor=#ffffff;fontSize=9;" parent="cloud_border" vertex="1">
          <mxGeometry x="440" y="515" width="100" height="30" as="geometry" />
        </mxCell>
        <mxCell id="bp_create" value="&lt;font face=&quot;Verdana&quot;&gt;&lt;b&gt;4. Create Image&lt;/b&gt;&lt;/font&gt;" style="rounded=0;whiteSpace=wrap;html=1;fillColor=#647687;strokeColor=#314354;fontColor=#ffffff;fontSize=9;" parent="cloud_border" vertex="1">
          <mxGeometry x="550" y="515" width="100" height="30" as="geometry" />
        </mxCell>
        <mxCell id="bp_test" value="&lt;font face=&quot;Verdana&quot;&gt;&lt;b&gt;5. Test Image&lt;/b&gt;&lt;/font&gt;" style="rounded=0;whiteSpace=wrap;html=1;fillColor=#647687;strokeColor=#314354;fontColor=#ffffff;fontSize=9;" parent="cloud_border" vertex="1">
          <mxGeometry x="660" y="515" width="100" height="30" as="geometry" />
        </mxCell>
        <mxCell id="bp_distribute" value="&lt;font face=&quot;Verdana&quot;&gt;&lt;b&gt;6. Distribute Image&lt;/b&gt;&lt;/font&gt;" style="rounded=0;whiteSpace=wrap;html=1;fillColor=#647687;strokeColor=#314354;fontColor=#ffffff;fontSize=9;" parent="cloud_border" vertex="1">
          <mxGeometry x="770" y="515" width="90" height="30" as="geometry" />
        </mxCell>
        <mxCell id="license_manager" value="AWS License&#xa;Manager" style="sketch=0;points=[[0,0,0],[0.25,0,0],[0.5,0,0],[0.75,0,0],[1,0,0],[0,1,0],[0.25,1,0],[0.5,1,0],[0.75,1,0],[1,1,0],[0,0.25,0],[0,0.5,0],[0,0.75,0],[1,0.25,0],[1,0.5,0],[1,0.75,0]];outlineConnect=0;fontColor=#232F3E;gradientColor=#F54749;gradientDirection=north;fillColor=#C7131F;strokeColor=#ffffff;dashed=0;verticalLabelPosition=bottom;verticalAlign=top;align=center;html=1;fontSize=12;fontStyle=0;aspect=fixed;shape=mxgraph.aws4.resourceIcon;resIcon=mxgraph.aws4.license_manager;" parent="cloud_border" vertex="1">
          <mxGeometry x="1161" y="110" width="48" height="48" as="geometry" />
        </mxCell>
        <mxCell id="license_note" value="Tracks Windows&#xa;licensing usage" style="text;html=1;strokeColor=none;fillColor=none;align=center;verticalAlign=middle;whiteSpace=wrap;rounded=0;fontSize=8;" parent="cloud_border" vertex="1">
          <mxGeometry x="1212" y="110" width="48" height="30" as="geometry" />
        </mxCell>
        <mxCell id="deployment_title" value="Image Deployment" style="fillColor=#147EBA;strokeColor=none;dashed=0;verticalAlign=top;fontStyle=1;fontColor=#FFFFFF;fontSize=14;opacity=80;" parent="cloud_border" vertex="1">
          <mxGeometry x="210" y="600" width="680" height="120" as="geometry" />
        </mxCell>
        <mxCell id="ec2_instance" value="EC2 Instances" style="sketch=0;points=[[0,0,0],[0.25,0,0],[0.5,0,0],[0.75,0,0],[1,0,0],[0,1,0],[0.25,1,0],[0.5,1,0],[0.75,1,0],[1,1,0],[0,0.25,0],[0,0.5,0],[0,0.75,0],[1,0.25,0],[1,0.5,0],[1,0.75,0]];outlineConnect=0;fontColor=#232F3E;gradientColor=#F78E04;gradientDirection=north;fillColor=#D05C17;strokeColor=#ffffff;dashed=0;verticalLabelPosition=bottom;verticalAlign=top;align=center;html=1;fontSize=12;fontStyle=0;aspect=fixed;shape=mxgraph.aws4.resourceIcon;resIcon=mxgraph.aws4.ec2;" parent="cloud_border" vertex="1">
          <mxGeometry x="400" y="640" width="48" height="48" as="geometry" />
        </mxCell>
        <mxCell id="asg" value="Auto Scaling Group" style="sketch=0;outlineConnect=0;fontColor=#232F3E;gradientColor=none;fillColor=#D45B07;strokeColor=none;dashed=0;verticalLabelPosition=bottom;verticalAlign=top;align=center;html=1;fontSize=12;fontStyle=0;aspect=fixed;pointerEvents=1;shape=mxgraph.aws4.auto_scaling2;" parent="cloud_border" vertex="1">
          <mxGeometry x="660" y="640" width="48" height="48" as="geometry" />
        </mxCell>
        <mxCell id="alb" value="Application&#xa;Load Balancer" style="sketch=0;outlineConnect=0;fontColor=#232F3E;gradientColor=none;fillColor=#4D27AA;strokeColor=none;dashed=0;verticalLabelPosition=bottom;verticalAlign=top;align=center;html=1;fontSize=12;fontStyle=0;aspect=fixed;pointerEvents=1;shape=mxgraph.aws4.application_load_balancer;" parent="cloud_border" vertex="1">
          <mxGeometry x="540" y="630" width="48" height="48" as="geometry" />
        </mxCell>
        <mxCell id="infra_mgmt_container" value="Infrastructure Management" style="fillColor=#00FF00;strokeColor=#666666;dashed=0;verticalAlign=top;fontStyle=1;fontColor=#000000;fontSize=10;opacity=80;" parent="cloud_border" vertex="1">
          <mxGeometry x="1020" y="490" width="330" height="240" as="geometry" />
        </mxCell>
        <mxCell id="kms" value="AWS KMS&#xa;(for encryption)" style="sketch=0;points=[[0,0,0],[0.25,0,0],[0.5,0,0],[0.75,0,0],[1,0,0],[0,1,0],[0.25,1,0],[0.5,1,0],[0.75,1,0],[1,1,0],[0,0.25,0],[0,0.5,0],[0,0.75,0],[1,0.25,0],[1,0.5,0],[1,0.75,0]];outlineConnect=0;fontColor=#232F3E;gradientColor=#F54749;gradientDirection=north;fillColor=#C7131F;strokeColor=#ffffff;dashed=0;verticalLabelPosition=bottom;verticalAlign=top;align=center;html=1;fontSize=12;fontStyle=0;aspect=fixed;shape=mxgraph.aws4.resourceIcon;resIcon=mxgraph.aws4.key_management_service;" parent="cloud_border" vertex="1">
          <mxGeometry x="1260" y="530" width="48" height="48" as="geometry" />
        </mxCell>
        <mxCell id="ssm_param" value="SSM Parameter&#xa;Store" style="sketch=0;points=[[0,0,0],[0.25,0,0],[0.5,0,0],[0.75,0,0],[1,0,0],[0,1,0],[0.25,1,0],[0.5,1,0],[0.75,1,0],[1,1,0],[0,0.25,0],[0,0.5,0],[0,0.75,0],[1,0.25,0],[1,0.5,0],[1,0.75,0]];outlineConnect=0;fontColor=#232F3E;gradientColor=#F34482;gradientDirection=north;fillColor=#BC1356;strokeColor=#ffffff;dashed=0;verticalLabelPosition=bottom;verticalAlign=top;align=center;html=1;fontSize=12;fontStyle=0;aspect=fixed;shape=mxgraph.aws4.parameter_store;" parent="cloud_border" vertex="1">
          <mxGeometry x="1270" y="636" width="48" height="48" as="geometry" />
        </mxCell>
        <mxCell id="s3_bucket" value="S3 Bucket&#xa;(Component Scripts)" style="sketch=0;points=[[0,0,0],[0.25,0,0],[0.5,0,0],[0.75,0,0],[1,0,0],[0,1,0],[0.25,1,0],[0.5,1,0],[0.75,1,0],[1,1,0],[0,0.25,0],[0,0.5,0],[0,0.75,0],[1,0.25,0],[1,0.5,0],[1,0.75,0]];outlineConnect=0;fontColor=#232F3E;gradientColor=#60A337;gradientDirection=north;fillColor=#277116;strokeColor=#ffffff;dashed=0;verticalLabelPosition=bottom;verticalAlign=top;align=center;html=1;fontSize=12;fontStyle=0;aspect=fixed;shape=mxgraph.aws4.resourceIcon;resIcon=mxgraph.aws4.s3;" parent="cloud_border" vertex="1">
          <mxGeometry x="1180" y="370" width="48" height="48" as="geometry" />
        </mxCell>
        <mxCell id="legend" value="Legend" style="fillColor=#f5f5f5;strokeColor=#666666;fontColor=#333333;dashed=0;verticalAlign=top;fontStyle=1;fontSize=12;" parent="cloud_border" vertex="1">
          <mxGeometry x="30" y="480" width="150" height="140" as="geometry" />
        </mxCell>
        <mxCell id="infosec_legend" value="" style="rounded=0;whiteSpace=wrap;html=1;fillColor=#FF8000;strokeColor=none;" parent="cloud_border" vertex="1">
          <mxGeometry x="40" y="510" width="20" height="10" as="geometry" />
        </mxCell>
        <mxCell id="infosec_text" value="Infosec Pipeline Flow" style="text;html=1;strokeColor=none;fillColor=none;align=left;verticalAlign=middle;whiteSpace=wrap;rounded=0;fontSize=10;" parent="cloud_border" vertex="1">
          <mxGeometry x="70" y="505" width="100" height="20" as="geometry" />
        </mxCell>
        <mxCell id="webserver_legend" value="" style="rounded=0;whiteSpace=wrap;html=1;fillColor=#3334B9;strokeColor=none;" parent="cloud_border" vertex="1">
          <mxGeometry x="40" y="530" width="20" height="10" as="geometry" />
        </mxCell>
        <mxCell id="webserver_text" value="Web Server Pipeline Flow" style="text;html=1;strokeColor=none;fillColor=none;align=left;verticalAlign=middle;whiteSpace=wrap;rounded=0;fontSize=10;" parent="cloud_border" vertex="1">
          <mxGeometry x="70" y="525" width="100" height="20" as="geometry" />
        </mxCell>
        <mxCell id="deployment_legend" value="" style="rounded=0;whiteSpace=wrap;html=1;fillColor=#147EBA;strokeColor=none;" parent="cloud_border" vertex="1">
          <mxGeometry x="40" y="550" width="20" height="10" as="geometry" />
        </mxCell>
        <mxCell id="deployment_text" value="Deployment Flow" style="text;html=1;strokeColor=none;fillColor=none;align=left;verticalAlign=middle;whiteSpace=wrap;rounded=0;fontSize=10;" parent="cloud_border" vertex="1">
          <mxGeometry x="70" y="545" width="100" height="20" as="geometry" />
        </mxCell>
        <mxCell id="config_legend" value="" style="rounded=0;whiteSpace=wrap;html=1;fillColor=#6C3EB5;strokeColor=none;" parent="cloud_border" vertex="1">
          <mxGeometry x="40" y="570" width="20" height="10" as="geometry" />
        </mxCell>
        <mxCell id="config_text" value="Configuration Elements" style="text;html=1;strokeColor=none;fillColor=none;align=left;verticalAlign=middle;whiteSpace=wrap;rounded=0;fontSize=10;" parent="cloud_border" vertex="1">
          <mxGeometry x="70" y="565" width="100" height="20" as="geometry" />
        </mxCell>
        <mxCell id="process_legend" value="" style="rounded=0;whiteSpace=wrap;html=1;fillColor=#808080;strokeColor=none;" parent="cloud_border" vertex="1">
          <mxGeometry x="40" y="590" width="20" height="10" as="geometry" />
        </mxCell>
        <mxCell id="process_text" value="Process Steps" style="text;html=1;strokeColor=none;fillColor=none;align=left;verticalAlign=middle;whiteSpace=wrap;rounded=0;fontSize=10;" parent="cloud_border" vertex="1">
          <mxGeometry x="70" y="585" width="100" height="20" as="geometry" />
        </mxCell>
        <mxCell id="schedule_info" value="Pipeline Schedule:&#xa;- Infosec Pipeline: 15th of each month (following Microsoft Patch Tuesday)&#xa;- Web Server Pipeline: 20th of each month (only if Infosec image updated)" style="shape=note;strokeWidth=2;fontSize=10;size=15;whiteSpace=wrap;html=1;fillColor=#fff2cc;strokeColor=#d6b656;fontColor=#666600;align=left;spacing=3;" parent="cloud_border" vertex="1">
          <mxGeometry x="30" y="640" width="150" height="90" as="geometry" />
        </mxCell>
        <mxCell id="arrow_base_infosec" value="Source Image" style="edgeStyle=orthogonalEdgeStyle;rounded=0;orthogonalLoop=1;jettySize=auto;html=1;strokeColor=#FF8000;strokeWidth=2;fontColor=#FF8000;fontSize=10;fontStyle=1;flowAnimation=1;" parent="cloud_border" source="base_ami" target="stig_component" edge="1">
          <mxGeometry relative="1" as="geometry" />
        </mxCell>
        <mxCell id="arrow_stig_update" value="Apply Updates" style="edgeStyle=orthogonalEdgeStyle;rounded=0;orthogonalLoop=1;jettySize=auto;html=1;strokeColor=#FF8000;strokeWidth=2;fontColor=#FF8000;fontSize=10;fontStyle=1;flowAnimation=1;" parent="cloud_border" edge="1">
          <mxGeometry x="-0.0645" y="-11" relative="1" as="geometry">
            <mxPoint x="288" y="291" as="sourcePoint" />
            <mxPoint x="338" y="291" as="targetPoint" />
            <mxPoint as="offset" />
          </mxGeometry>
        </mxCell>
        <mxCell id="arrow_update_test" value="Test" style="edgeStyle=orthogonalEdgeStyle;rounded=0;orthogonalLoop=1;jettySize=auto;html=1;strokeColor=#FF8000;strokeWidth=2;fontColor=#FF8000;fontSize=10;fontStyle=1;flowAnimation=1;" parent="cloud_border" edge="1">
          <mxGeometry relative="1" as="geometry">
            <mxPoint x="400" y="291" as="sourcePoint" />
            <mxPoint x="456" y="291" as="targetPoint" />
          </mxGeometry>
        </mxCell>
        <mxCell id="arrow_test_ami" value="Create&#xa;AMI" style="edgeStyle=orthogonalEdgeStyle;rounded=0;orthogonalLoop=1;jettySize=auto;html=1;strokeColor=#FF8000;strokeWidth=2;fontColor=#FF8000;fontSize=10;fontStyle=1;flowAnimation=1;" parent="cloud_border" source="test_component" target="infosec_ami" edge="1">
          <mxGeometry relative="1" as="geometry" />
        </mxCell>
        <mxCell id="arrow_golden_webserver" value="Source Image" style="edgeStyle=orthogonalEdgeStyle;rounded=0;orthogonalLoop=1;jettySize=auto;html=1;strokeColor=#3334B9;strokeWidth=2;fontColor=#3334B9;fontSize=10;fontStyle=1;flowAnimation=1;" parent="cloud_border" edge="1">
          <mxGeometry x="-0.488" relative="1" as="geometry">
            <mxPoint x="510" y="434" as="sourcePoint" />
            <mxPoint x="600" y="280" as="targetPoint" />
            <Array as="points">
              <mxPoint x="550" y="434" />
              <mxPoint x="550" y="280" />
              <mxPoint x="600" y="280" />
            </Array>
            <mxPoint as="offset" />
          </mxGeometry>
        </mxCell>
        <mxCell id="arrow_webserver_test" value="Test" style="edgeStyle=orthogonalEdgeStyle;rounded=0;orthogonalLoop=1;jettySize=auto;html=1;strokeColor=#3334B9;strokeWidth=2;fontColor=#3334B9;fontSize=10;fontStyle=1;flowAnimation=1;entryX=-0.007;entryY=0.387;entryDx=0;entryDy=0;entryPerimeter=0;" parent="cloud_border" source="webserver_component" target="webserver_test_phase" edge="1">
          <mxGeometry x="0.5992" relative="1" as="geometry">
            <mxPoint x="648" y="282" as="sourcePoint" />
            <mxPoint x="774" y="282" as="targetPoint" />
            <Array as="points">
              <mxPoint x="720" y="252" />
              <mxPoint x="720" y="253" />
            </Array>
            <mxPoint as="offset" />
          </mxGeometry>
        </mxCell>
        <mxCell id="arrow_webserver_test_ami" value="Create&#xa;AMI" style="edgeStyle=orthogonalEdgeStyle;rounded=0;orthogonalLoop=1;jettySize=auto;html=1;strokeColor=#3334B9;strokeWidth=2;fontColor=#3334B9;fontSize=10;fontStyle=1;flowAnimation=1;" parent="cloud_border" source="webserver_test_component" target="webserver_ami" edge="1">
          <mxGeometry x="0.2837" relative="1" as="geometry">
            <Array as="points">
              <mxPoint x="800" y="320" />
              <mxPoint x="800" y="320" />
            </Array>
            <mxPoint as="offset" />
          </mxGeometry>
        </mxCell>
        <mxCell id="arrow_webserver_license" value="License&#xa;Tracking" style="edgeStyle=orthogonalEdgeStyle;rounded=0;orthogonalLoop=1;jettySize=auto;html=1;strokeColor=#3334B9;strokeWidth=2;fontColor=#3334B9;fontSize=10;fontStyle=1;flowAnimation=1;" parent="cloud_border" edge="1">
          <mxGeometry relative="1" as="geometry">
            <mxPoint x="826" y="434" as="sourcePoint" />
            <mxPoint x="1161" y="140" as="targetPoint" />
            <Array as="points">
              <mxPoint x="920" y="434" />
              <mxPoint x="920" y="140" />
            </Array>
          </mxGeometry>
        </mxCell>
        <mxCell id="arrow_webserver_ec2" value="Deploy" style="edgeStyle=orthogonalEdgeStyle;rounded=0;orthogonalLoop=1;jettySize=auto;html=1;strokeColor=#147EBA;strokeWidth=2;fontColor=#147EBA;fontSize=10;fontStyle=1;flowAnimation=1;" parent="cloud_border" edge="1">
          <mxGeometry x="0.8345" y="6" relative="1" as="geometry">
            <mxPoint x="800" y="434" as="sourcePoint" />
            <mxPoint x="424" y="638" as="targetPoint" />
            <Array as="points">
              <mxPoint x="800" y="560" />
              <mxPoint x="424" y="560" />
            </Array>
            <mxPoint as="offset" />
          </mxGeometry>
        </mxCell>
        <mxCell id="arrow_webserver_alb" value="Deploy" style="edgeStyle=orthogonalEdgeStyle;rounded=0;orthogonalLoop=1;jettySize=auto;html=1;strokeColor=#147EBA;strokeWidth=2;fontColor=#147EBA;fontSize=10;fontStyle=1;flowAnimation=1;" parent="cloud_border" target="alb" edge="1">
          <mxGeometry x="0.2019" relative="1" as="geometry">
            <mxPoint x="800" y="434" as="sourcePoint" />
            <mxPoint x="524" y="638" as="targetPoint" />
            <Array as="points">
              <mxPoint x="800" y="590" />
              <mxPoint x="570" y="590" />
            </Array>
            <mxPoint as="offset" />
          </mxGeometry>
        </mxCell>
        <mxCell id="arrow_webserver_asg" value="Deploy" style="edgeStyle=orthogonalEdgeStyle;rounded=0;orthogonalLoop=1;jettySize=auto;html=1;strokeColor=#147EBA;strokeWidth=2;fontColor=#147EBA;fontSize=10;fontStyle=1;flowAnimation=1;" parent="cloud_border" target="asg" edge="1">
          <mxGeometry relative="1" as="geometry">
            <mxPoint x="800" y="434" as="sourcePoint" />
            <mxPoint x="624" y="638" as="targetPoint" />
            <Array as="points">
              <mxPoint x="800" y="664" />
            </Array>
          </mxGeometry>
        </mxCell>
        <mxCell id="calendar_icon" value="Schedule" style="shape=image;verticalLabelPosition=bottom;labelBackgroundColor=#ffffff;verticalAlign=top;aspect=fixed;imageAspect=0;image=data:image/svg+xml,PHN2ZyB4bWxucz0iaHR0cDovL3d3dy53My5vcmcvMjAwMC9zdmciIHZpZXdCb3g9IjAgMCAzODQgNTEyIj48IS0tIEZvbnQgQXdlc29tZSBGcmVlIDUuMTUuNSBieSBAZm9udGF3ZXNvbWUgLSBodHRwczovL2ZvbnRhd2Vzb21lLmNvbSBMaWNlbnNlIC0gaHR0cHM6Ly9mb250YXdlc29tZS5jb20vbGljZW5zZS9mcmVlIChJY29uczogQ0MgQlkgNC4wLCBGb250czogU0lMIE9GTCAxLjEsIENvZGU6IE1JVCBMaWNlbnNlKSAtLT48cGF0aCBmaWxsPSIjNUE1QTVBIiBkPSJNMzM2IDE2SDQ4QzIxLjUgMTYgMCAzNy41IDAgNjR2Mzg0YzAgMjYuNSAyMS41IDQ4IDQ4IDQ4aDI4OGMyNi41IDAgNDgtMjEuNSA0OC00OFY2NGMwLTI2LjUtMjEuNS00OC00OC00OHptMCAzMjBINDhWNjRoMjg4djI3MnpNODggMTQ0aDMydjMySDg4di0zMnptMCA2NGgzMnYzMkg4OHYtMzJ6bTAgNjRoMzJ2MzJIODh2LTMyem0xMjgtOTZoMzJ2MzJoLTMydi0zMnptMCA2NGgzMnYzMmgtMzJ2LTMyem0wLTEyOGgzMnYzMmgtMzJ2LTMyem0xMjgtNjRoMzJ2MzJoLTMydi0zMnptMCA2NGgzMnYzMmgtMzJ2LTMyem0wIDY0aDMydjMyaC0zMnYtMzJ6Ii8+PC9zdmc+;fontSize=10;shadow=0;" parent="cloud_border" vertex="1">
          <mxGeometry x="220" y="347" width="20" height="26" as="geometry" />
        </mxCell>
        <mxCell id="calendar_text" value="15th" style="text;html=1;strokeColor=none;fillColor=none;align=center;verticalAlign=middle;whiteSpace=wrap;rounded=0;fontSize=10;fontStyle=1" parent="cloud_border" vertex="1">
          <mxGeometry x="240" y="350" width="30" height="20" as="geometry" />
        </mxCell>
        <mxCell id="calendar_icon2" value="Schedule" style="shape=image;verticalLabelPosition=bottom;labelBackgroundColor=#ffffff;verticalAlign=top;aspect=fixed;imageAspect=0;image=data:image/svg+xml,PHN2ZyB4bWxucz0iaHR0cDovL3d3dy53My5vcmcvMjAwMC9zdmciIHZpZXdCb3g9IjAgMCAzODQgNTEyIj48IS0tIEZvbnQgQXdlc29tZSBGcmVlIDUuMTUuNSBieSBAZm9udGF3ZXNvbWUgLSBodHRwczovL2ZvbnRhd2Vzb21lLmNvbSBMaWNlbnNlIC0gaHR0cHM6Ly9mb250YXdlc29tZS5jb20vbGljZW5zZS9mcmVlIChJY29uczogQ0MgQlkgNC4wLCBGb250czogU0lMIE9GTCAxLjEsIENvZGU6IE1JVCBMaWNlbnNlKSAtLT48cGF0aCBmaWxsPSIjNUE1QTVBIiBkPSJNMzM2IDE2SDQ4QzIxLjUgMTYgMCAzNy41IDAgNjR2Mzg0YzAgMjYuNSAyMS41IDQ4IDQ4IDQ4aDI4OGMyNi41IDAgNDgtMjEuNSA0OC00OFY2NGMwLTI2LjUtMjEuNS00OC00OC00OHptMCAzMjBINDhWNjRoMjg4djI3MnpNODggMTQ0aDMydjMySDg4di0zMnptMCA2NGgzMnYzMkg4OHYtMzJ6bTAgNjRoMzJ2MzJIODh2LTMyem0xMjgtOTZoMzJ2MzJoLTMydi0zMnptMCA2NGgzMnYzMmgtMzJ2LTMyem0wLTEyOGgzMnYzMmgtMzJ2LTMyem0xMjgtNjRoMzJ2MzJoLTMydi0zMnptMCA2NGgzMnYzMmgtMzJ2LTMyem0wIDY0aDMydjMyaC0zMnYtMzJ6Ii8+PC9zdmc+;fontSize=10;" parent="cloud_border" vertex="1">
          <mxGeometry x="560" y="347" width="20" height="26" as="geometry" />
        </mxCell>
        <mxCell id="calendar_text2" value="20th" style="text;html=1;strokeColor=none;fillColor=none;align=center;verticalAlign=middle;whiteSpace=wrap;rounded=0;fontSize=10;fontStyle=1" parent="cloud_border" vertex="1">
          <mxGeometry x="580" y="350" width="30" height="20" as="geometry" />
        </mxCell>
        <mxCell id="arrow_conditional" value="If new&#xa;version" style="edgeStyle=orthogonalEdgeStyle;rounded=0;orthogonalLoop=1;jettySize=auto;html=1;strokeColor=#00CC00;strokeWidth=2;fontColor=#00CC00;fontSize=10;fontStyle=1;dashed=1;flowAnimation=1;" parent="cloud_border" edge="1">
          <mxGeometry relative="1" as="geometry">
            <mxPoint x="320" y="350" as="sourcePoint" />
            <mxPoint x="420" y="350" as="targetPoint" />
          </mxGeometry>
        </mxCell>
        <mxCell id="s3_to_component" value="Download&#xa;scripts" style="edgeStyle=orthogonalEdgeStyle;rounded=0;orthogonalLoop=1;jettySize=auto;html=1;strokeColor=#FF3333;strokeWidth=1;fontColor=#277116;fontSize=9;fontStyle=1;dashed=1;flowAnimation=1;" parent="cloud_border" source="s3_bucket" edge="1">
          <mxGeometry relative="1" as="geometry">
            <mxPoint x="1180" y="410" as="sourcePoint" />
            <mxPoint x="860" y="274" as="targetPoint" />
            <Array as="points">
              <mxPoint x="1204" y="274" />
            </Array>
          </mxGeometry>
        </mxCell>
        <mxCell id="s3_download_webserver" value="Download&#xa;website payload" style="edgeStyle=orthogonalEdgeStyle;rounded=0;orthogonalLoop=1;jettySize=auto;html=1;strokeColor=#FF3333;strokeWidth=1;fontColor=#277116;fontSize=9;fontStyle=1;dashed=1;flowAnimation=1;" parent="cloud_border" edge="1">
          <mxGeometry x="-0.3776" relative="1" as="geometry">
            <mxPoint x="1180" y="390" as="sourcePoint" />
            <mxPoint x="650" y="274" as="targetPoint" />
            <Array as="points">
              <mxPoint x="730" y="390" />
              <mxPoint x="730" y="274" />
            </Array>
            <mxPoint as="offset" />
          </mxGeometry>
        </mxCell>
        <mxCell id="x-3CaARcn_WfTGkExnqU-2" value="" style="group" parent="cloud_border" vertex="1" connectable="0">
          <mxGeometry x="210" y="60" width="660" height="50" as="geometry" />
        </mxCell>
        <mxCell id="pipeline_config" value="Pipeline Configuration" style="fillColor=#6C3EB5;strokeColor=#ffffff;dashed=0;verticalAlign=top;fontStyle=1;fontColor=#FFFFFF;fontSize=12;opacity=80;" parent="x-3CaARcn_WfTGkExnqU-2" vertex="1">
          <mxGeometry y="-10" width="660" height="60" as="geometry" />
        </mxCell>
        <mxCell id="recipe_config" value="Image Recipe" style="rounded=1;whiteSpace=wrap;html=1;fillColor=#4D27AA;strokeColor=#ffffff;fontColor=#FFFFFF;fontSize=10;fontStyle=1" parent="x-3CaARcn_WfTGkExnqU-2" vertex="1">
          <mxGeometry x="100" y="10" width="100" height="30" as="geometry" />
        </mxCell>
        <mxCell id="infra_config" value="Infrastructure Config" style="rounded=1;whiteSpace=wrap;html=1;fillColor=#4D27AA;strokeColor=#ffffff;fontColor=#FFFFFF;fontSize=10;fontStyle=1" parent="x-3CaARcn_WfTGkExnqU-2" vertex="1">
          <mxGeometry x="280" y="20" width="100" height="30" as="geometry" />
        </mxCell>
        <mxCell id="distro_config" value="Distribution Config" style="rounded=1;whiteSpace=wrap;html=1;fillColor=#4D27AA;strokeColor=#ffffff;fontColor=#FFFFFF;fontSize=10;fontStyle=1" parent="x-3CaARcn_WfTGkExnqU-2" vertex="1">
          <mxGeometry x="460" y="10" width="100" height="30" as="geometry" />
        </mxCell>
        <mxCell id="x-3CaARcn_WfTGkExnqU-3" value="" style="group" parent="cloud_border" vertex="1" connectable="0">
          <mxGeometry x="1030" y="510" width="90" height="82" as="geometry" />
        </mxCell>
        <mxCell id="systems_manager" value="AWS Systems&#xa;Manager" style="sketch=0;points=[[0,0,0],[0.25,0,0],[0.5,0,0],[0.75,0,0],[1,0,0],[0,1,0],[0.25,1,0],[0.5,1,0],[0.75,1,0],[1,1,0],[0,0.25,0],[0,0.5,0],[0,0.75,0],[1,0.25,0],[1,0.5,0],[1,0.75,0]];points=[[0,0,0],[0.25,0,0],[0.5,0,0],[0.75,0,0],[1,0,0],[0,1,0],[0.25,1,0],[0.5,1,0],[0.75,1,0],[1,1,0],[0,0.25,0],[0,0.5,0],[0,0.75,0],[1,0.25,0],[1,0.5,0],[1,0.75,0]];outlineConnect=0;fontColor=#232F3E;gradientColor=#F34482;gradientDirection=north;fillColor=#BC1356;strokeColor=#ffffff;dashed=0;verticalLabelPosition=bottom;verticalAlign=top;align=center;html=1;fontSize=12;fontStyle=0;aspect=fixed;shape=mxgraph.aws4.resourceIcon;resIcon=mxgraph.aws4.systems_manager;" parent="x-3CaARcn_WfTGkExnqU-3" vertex="1">
          <mxGeometry x="14.142857142857144" y="34" width="48" height="48" as="geometry" />
        </mxCell>
        <mxCell id="sm_note" value="&lt;i&gt;&lt;font style=&quot;color: rgb(0, 0, 0);&quot;&gt;&lt;b style=&quot;&quot;&gt;Instance management&lt;br&gt;and configuration&lt;/b&gt;&lt;/font&gt;&lt;/i&gt;" style="text;html=1;strokeColor=none;fillColor=none;align=center;verticalAlign=middle;whiteSpace=wrap;rounded=0;fontSize=8;" parent="x-3CaARcn_WfTGkExnqU-3" vertex="1">
          <mxGeometry width="90" height="30" as="geometry" />
        </mxCell>
        <mxCell id="x-3CaARcn_WfTGkExnqU-4" value="" style="group" parent="cloud_border" vertex="1" connectable="0">
          <mxGeometry x="1040" y="640" width="118" height="48" as="geometry" />
        </mxCell>
        <mxCell id="cloudwatch" value="Amazon&#xa;CloudWatch" style="sketch=0;points=[[0,0,0],[0.25,0,0],[0.5,0,0],[0.75,0,0],[1,0,0],[0,1,0],[0.25,1,0],[0.5,1,0],[0.75,1,0],[1,1,0],[0,0.25,0],[0,0.5,0],[0,0.75,0],[1,0.25,0],[1,0.5,0],[1,0.75,0]];points=[[0,0,0],[0.25,0,0],[0.5,0,0],[0.75,0,0],[1,0,0],[0,1,0],[0.25,1,0],[0.5,1,0],[0.75,1,0],[1,1,0],[0,0.25,0],[0,0.5,0],[0,0.75,0],[1,0.25,0],[1,0.5,0],[1,0.75,0]];outlineConnect=0;fontColor=#232F3E;gradientColor=#F34482;gradientDirection=north;fillColor=#BC1356;strokeColor=#ffffff;dashed=0;verticalLabelPosition=bottom;verticalAlign=top;align=center;html=1;fontSize=12;fontStyle=0;aspect=fixed;shape=mxgraph.aws4.resourceIcon;resIcon=mxgraph.aws4.cloudwatch;" parent="x-3CaARcn_WfTGkExnqU-4" vertex="1">
          <mxGeometry x="70" width="48" height="48" as="geometry" />
        </mxCell>
        <mxCell id="cw_note" value="&lt;b&gt;Pipeline and instance&lt;br&gt;monitoring&lt;/b&gt;" style="text;html=1;strokeColor=none;fillColor=none;align=center;verticalAlign=middle;whiteSpace=wrap;rounded=0;fontSize=8;" parent="x-3CaARcn_WfTGkExnqU-4" vertex="1">
          <mxGeometry y="18" width="74" height="30" as="geometry" />
        </mxCell>
      </root>
    </mxGraphModel>
  </diagram>
</mxfile>
